<svg width="161" height="185" viewBox="0 0 161 185" fill="none" xmlns="http://www.w3.org/2000/svg">
<g clip-path="url(#clip0_90_2881)">
<path d="M153.332 123.66L140.086 178.848C139.22 182.456 135.982 185.001 132.258 185.001H28.7416C25.0168 185.001 21.7792 182.456 20.9132 178.848L7.66699 123.66H153.332Z" fill="#E84242"/>
<path d="M155.553 99.058H5.44727C2.43882 99.058 0 101.487 0 104.484V118.999C0 121.996 2.43882 124.425 5.44727 124.425H155.553C158.561 124.425 161 121.996 161 118.999V104.484C161 101.487 158.561 99.058 155.553 99.058Z" fill="#332D2D"/>
<path d="M69.6827 54.2984C69.6827 55.8098 69.2818 57.34 68.4422 58.7277L33.9551 115.708C31.494 119.774 26.1909 121.082 22.1094 118.631C18.0279 116.18 16.7147 110.897 19.1748 106.832L53.6619 49.8523C56.123 45.7867 61.425 44.4776 65.5076 46.9281C68.1949 48.5422 69.6827 51.3836 69.6827 54.2984Z" fill="black"/>
<path d="M26.564 114.634C28.4288 114.634 29.9406 113.128 29.9406 111.271C29.9406 109.413 28.4288 107.907 26.564 107.907C24.6992 107.907 23.1875 109.413 23.1875 111.271C23.1875 113.128 24.6992 114.634 26.564 114.634Z" fill="white"/>
<path d="M91.3174 54.2984C91.3174 55.8098 91.7183 57.34 92.5579 58.7277L127.045 115.708C129.506 119.774 134.809 121.082 138.891 118.631C142.972 116.18 144.285 110.897 141.825 106.832L107.338 49.8523C104.877 45.7867 99.5751 44.4776 95.4925 46.9281C92.8052 48.5422 91.3174 51.3836 91.3174 54.2984Z" fill="black"/>
<path d="M134.436 114.634C136.301 114.634 137.813 113.128 137.813 111.271C137.813 109.413 136.301 107.907 134.436 107.907C132.571 107.907 131.06 109.413 131.06 111.271C131.06 113.128 132.571 114.634 134.436 114.634Z" fill="white"/>
<path d="M83.5784 137.542C83.5784 135.848 82.2 134.475 80.4997 134.475C78.7993 134.475 77.4209 135.848 77.4209 137.542V171.118C77.4209 172.811 78.7993 174.185 80.4997 174.185C82.2 174.185 83.5784 172.811 83.5784 171.118V137.542Z" fill="#BC3B3B"/>
<path d="M49.3275 174.013C47.6408 174.235 46.093 173.055 45.87 171.375L41.4381 138.091C41.215 136.412 42.4009 134.87 44.0865 134.647C44.2748 134.623 44.4611 134.615 44.6431 134.624C46.1004 134.694 47.3441 135.792 47.544 137.284L51.9749 170.569C52.1979 172.248 51.0132 173.788 49.3275 174.013Z" fill="#BC3B3B"/>
<path d="M111.671 174.013C113.358 174.235 114.906 173.055 115.129 171.375L119.561 138.091C119.784 136.412 118.598 134.87 116.912 134.647C116.724 134.623 116.538 134.615 116.356 134.624C114.899 134.694 113.655 135.792 113.455 137.284L109.024 170.569C108.801 172.248 109.986 173.788 111.671 174.013Z" fill="#BC3B3B"/>
<path d="M104.554 23.9609C104.554 26.1294 102.79 27.8871 100.614 27.8871H84.4413V43.9966C84.4413 46.164 82.6768 47.9217 80.4998 47.9217C78.3228 47.9217 76.5593 46.164 76.5593 43.9966V27.8871H60.3869C58.2099 27.8871 56.4453 26.1294 56.4453 23.9609C56.4453 22.8771 56.8862 21.8961 57.5996 21.1855C58.313 20.4748 59.2989 20.0357 60.3869 20.0357H76.5593V3.92622C76.5593 1.75768 78.3238 0 80.4998 0C81.5888 0 82.5737 0.439159 83.2871 1.14978C84.0005 1.8604 84.4413 2.84143 84.4413 3.92622V20.0357H100.614C102.79 20.0357 104.554 21.7934 104.554 23.9609Z" fill="#85BC35"/>
</g>
<defs>
<clipPath id="clip0_90_2881">
<rect width="161" height="185" fill="white"/>
</clipPath>
</defs>
</svg>
